<svg width="160" height="160" viewBox="0 0 160 160" fill="none" xmlns="http://www.w3.org/2000/svg">
  <rect width="160" height="160" rx="32" fill="#FBFBF8"/>
  <path d="M40 104C48 76 64 50 88 32C76 64 91 82 120 86C96 92 74 101 56 128C59 112 52 105 40 104Z" fill="#199A91"/>
  <path d="M58 116C72 91 92 76 122 70C102 82 91 103 92 130C84 116 73 112 58 116Z" fill="#DD63A8"/>
  <path d="M50 95C62 88 76 87 92 91" stroke="#17212F" stroke-width="6" stroke-linecap="round"/>
  <path d="M67 75C81 72 94 75 107 84" stroke="#FF917D" stroke-width="5" stroke-linecap="round"/>
</svg>
